<?xml version="1.0" encoding="UTF-8" standalone="no"?>
<!-- Created with Inkscape (http://www.inkscape.org/) -->

<svg
   width="100"
   height="100"
   viewBox="0 0 26.458333 26.458333"
   version="1.1"
   id="svg376"
   inkscape:version="1.2.2 (732a01da63, 2022-12-09)"
   sodipodi:docname="AA Symbol.svg"
   xmlns:inkscape="http://www.inkscape.org/namespaces/inkscape"
   xmlns:sodipodi="http://sodipodi.sourceforge.net/DTD/sodipodi-0.dtd"
   xmlns="http://www.w3.org/2000/svg"
   xmlns:svg="http://www.w3.org/2000/svg"
   xmlns:rdf="http://www.w3.org/1999/02/22-rdf-syntax-ns#"
   xmlns:cc="http://creativecommons.org/ns#"
   xmlns:dc="http://purl.org/dc/elements/1.1/">
  <title
     id="title1124">AA Symbol 2026</title>
  <sodipodi:namedview
     id="namedview378"
     pagecolor="#ffffff"
     bordercolor="#111111"
     borderopacity="1"
     inkscape:showpageshadow="0"
     inkscape:pageopacity="0"
     inkscape:pagecheckerboard="1"
     inkscape:deskcolor="#d1d1d1"
     inkscape:document-units="mm"
     showgrid="false"
     inkscape:zoom="5.9081369"
     inkscape:cx="20.988004"
     inkscape:cy="49.76188"
     inkscape:window-width="1920"
     inkscape:window-height="1009"
     inkscape:window-x="-8"
     inkscape:window-y="-8"
     inkscape:window-maximized="1"
     inkscape:current-layer="layer1" />
  <defs
     id="defs373" />
  <g
     inkscape:label="Capa 1"
     inkscape:groupmode="layer"
     id="layer1">
    <g
       id="#fdfdfdff"
       transform="matrix(0.05245958,0,0,0.05245958,-0.37127799,-0.11456759)"
       style="fill:#000000">
      <path
         fill="#fdfdfd"
         opacity="1"
         d="m 17.61,15.16 c 21.8,-0.22 43.61,-0.3 65.41,-0.13 15.89,-0.19 31.97,5.4 43.64,16.32 8.85,7.84 16.67,16.73 24.06,25.92 39.06,49.62 78.45,98.99 117.42,148.67 -33.71,0.04 -67.43,0.22 -101.14,-0.04 -14.96,-1.03 -31.55,-3.95 -41.67,-16.2 C 113.84,175.68 105.35,159.55 95.79,144.22 72.5,106.13 49.5,67.87 26.16,29.81 23.22,24.98 20.29,20.14 17.61,15.16 Z"
         id="path885"
         style="fill:#1976d2;fill-opacity:1" />
      <path
         fill="#fdfdfd"
         opacity="1"
         d="m 221.45,219.54 c 31.8,-5.15 64.27,-7.24 96.39,-4.27 16.88,1.96 34.34,6.22 47.84,17.08 7.94,6.45 13.02,15.73 15.67,25.49 -20.77,-4.34 -42.31,-3.56 -63.23,-0.7 -20.56,2.94 -40.67,9.71 -58.49,20.46 -13.52,8.44 -25.74,19.8 -32.52,34.45 -5.6,10.83 -7.05,23.24 -7.48,35.27 -11.21,-17.57 -21.82,-35.5 -32.73,-53.25 -7.08,-12.14 -15.02,-24.68 -15.8,-39.12 -1.44,-8.07 3.78,-15.32 9.64,-20.2 11.75,-8.96 26.48,-12.44 40.71,-15.21 z"
         id="path887"
         style="fill:#b0bec5;fill-opacity:1" />
      <path
         fill="#fdfdfd"
         opacity="1"
         d="m 276.01,279.05 c 12.67,-5.79 26,-10.89 40,-11.92 2.5,-0.5 3.42,2.77 5.07,3.81 51.04,61.94 101.95,124.01 153.03,185.93 9.01,11.4 18.77,22.2 27.39,33.89 -46.83,0.49 -93.68,0.19 -140.52,0.19 -20.09,0.33 -40.5,-5.12 -56.83,-17.08 -11.8,-7.91 -20.14,-19.66 -27.34,-31.66 -11.58,-19.39 -23.36,-38.64 -35.09,-57.93 -4.07,-6.78 -8.96,-13.32 -10.95,-21.1 -2.43,-14.47 -3.32,-29.83 2.75,-43.59 7.86,-18.59 24.55,-32.18 42.49,-40.54 z"
         id="path889"
         style="fill:#ff1744;fill-opacity:1" />
    </g>
  </g>
  <metadata
     id="metadata1122">
    <rdf:RDF>
      <cc:Work
         rdf:about="">
        <dc:title>AA Symbol 2026</dc:title>
        <dc:date>5 abr 2026</dc:date>
      </cc:Work>
    </rdf:RDF>
  </metadata>
</svg>
